<svg width="374" height="625" viewBox="0 0 374 625" fill="none" xmlns="http://www.w3.org/2000/svg">
<mask id="path-1-outside-1_2_6" maskUnits="userSpaceOnUse" x="23" y="113" width="344" height="387" fill="black">
<rect fill="white" x="23" y="113" width="344" height="387"/>
<path d="M44.8926 414.631C54.821 417.886 63.8542 420.49 71.9922 422.443C87.7799 358.967 105.765 284.016 125.947 197.59L67.1094 191.242C63.3659 180.988 61.4941 169.351 61.4941 156.33C61.4941 146.402 62.6335 136.717 64.9121 127.277C88.5124 122.72 115.693 119.465 146.455 117.512C177.38 115.396 203.91 114.338 226.045 114.338C241.995 114.338 253.958 114.419 261.934 114.582L277.314 123.371C304.658 198.404 332.409 299.885 360.566 427.814C360.892 429.117 361.462 431.721 362.275 435.627C363.252 439.533 363.984 443.277 364.473 446.857C364.961 450.275 365.205 453.531 365.205 456.623C365.205 470.295 360.322 481.363 350.557 489.826C336.885 495.197 320.365 497.883 300.996 497.883C291.882 497.883 282.686 496.906 273.408 494.953C264.131 493 257.865 489.989 254.609 485.92L257.539 422.932L251.436 390.217C240.856 390.868 228.405 391.193 214.082 391.193C198.783 391.193 184.46 390.705 171.113 389.729L168.184 402.912C161.836 431.232 156.628 451.333 152.559 463.215C148.652 475.096 142.793 483.885 134.98 489.582C127.331 495.279 115.856 498.127 100.557 498.127C90.6283 498.127 80.6185 496.825 70.5273 494.221C60.4362 491.779 51.3216 488.443 43.1836 484.211C35.0456 479.979 28.9421 475.422 24.873 470.539C24.873 458.82 26.6634 447.671 30.2441 437.092C33.8249 426.512 38.7077 419.025 44.8926 414.631ZM216.035 199.787H204.805L187.227 320.148H241.914L216.035 199.787Z"/>
</mask>
<path d="M44.8926 414.631C54.821 417.886 63.8542 420.49 71.9922 422.443C87.7799 358.967 105.765 284.016 125.947 197.59L67.1094 191.242C63.3659 180.988 61.4941 169.351 61.4941 156.33C61.4941 146.402 62.6335 136.717 64.9121 127.277C88.5124 122.72 115.693 119.465 146.455 117.512C177.38 115.396 203.91 114.338 226.045 114.338C241.995 114.338 253.958 114.419 261.934 114.582L277.314 123.371C304.658 198.404 332.409 299.885 360.566 427.814C360.892 429.117 361.462 431.721 362.275 435.627C363.252 439.533 363.984 443.277 364.473 446.857C364.961 450.275 365.205 453.531 365.205 456.623C365.205 470.295 360.322 481.363 350.557 489.826C336.885 495.197 320.365 497.883 300.996 497.883C291.882 497.883 282.686 496.906 273.408 494.953C264.131 493 257.865 489.989 254.609 485.92L257.539 422.932L251.436 390.217C240.856 390.868 228.405 391.193 214.082 391.193C198.783 391.193 184.46 390.705 171.113 389.729L168.184 402.912C161.836 431.232 156.628 451.333 152.559 463.215C148.652 475.096 142.793 483.885 134.98 489.582C127.331 495.279 115.856 498.127 100.557 498.127C90.6283 498.127 80.6185 496.825 70.5273 494.221C60.4362 491.779 51.3216 488.443 43.1836 484.211C35.0456 479.979 28.9421 475.422 24.873 470.539C24.873 458.82 26.6634 447.671 30.2441 437.092C33.8249 426.512 38.7077 419.025 44.8926 414.631ZM216.035 199.787H204.805L187.227 320.148H241.914L216.035 199.787Z" fill="#17182F"/>
<path d="M44.8926 414.631L45.2041 413.681L44.7247 413.523L44.3134 413.816L44.8926 414.631ZM71.9922 422.443L71.7588 423.416L72.7232 423.647L72.9626 422.685L71.9922 422.443ZM125.947 197.59L126.921 197.817L127.178 196.717L126.055 196.596L125.947 197.59ZM67.1094 191.242L66.17 191.585L66.3834 192.17L67.0021 192.236L67.1094 191.242ZM64.9121 127.277L64.7225 126.295L64.091 126.417L63.94 127.043L64.9121 127.277ZM146.455 117.512L146.518 118.51L146.523 118.509L146.455 117.512ZM261.934 114.582L262.43 113.714L262.209 113.587L261.954 113.582L261.934 114.582ZM277.314 123.371L278.254 123.029L278.129 122.685L277.811 122.503L277.314 123.371ZM360.566 427.814L359.59 428.029L359.593 428.043L359.596 428.057L360.566 427.814ZM362.275 435.627L361.296 435.831L361.3 435.85L361.305 435.869L362.275 435.627ZM364.473 446.857L363.482 446.993L363.483 446.999L364.473 446.857ZM350.557 489.826L350.922 490.757L351.082 490.694L351.212 490.582L350.557 489.826ZM254.609 485.92L253.61 485.873L253.593 486.25L253.829 486.545L254.609 485.92ZM257.539 422.932L258.538 422.978L258.543 422.862L258.522 422.748L257.539 422.932ZM251.436 390.217L252.419 390.033L252.256 389.164L251.374 389.219L251.436 390.217ZM171.113 389.729L171.186 388.731L170.325 388.668L170.137 389.512L171.113 389.729ZM168.184 402.912L169.159 403.131L169.16 403.129L168.184 402.912ZM152.559 463.215L151.612 462.891L151.609 462.903L152.559 463.215ZM134.98 489.582L134.391 488.774L134.383 488.78L134.98 489.582ZM70.5273 494.221L70.7772 493.252L70.7699 493.251L70.7625 493.249L70.5273 494.221ZM24.873 470.539H23.873V470.901L24.1048 471.179L24.873 470.539ZM30.2441 437.092L29.2969 436.771L30.2441 437.092ZM216.035 199.787L217.013 199.577L216.843 198.787H216.035V199.787ZM204.805 199.787V198.787H203.94L203.815 199.643L204.805 199.787ZM187.227 320.148L186.237 320.004L186.07 321.148H187.227V320.148ZM241.914 320.148V321.148H243.152L242.892 319.938L241.914 320.148ZM44.581 415.581C54.5291 418.843 63.5889 421.455 71.7588 423.416L72.2256 421.471C64.1194 419.525 55.1128 416.929 45.2041 413.681L44.581 415.581ZM72.9626 422.685C88.7519 359.202 106.738 284.246 126.921 197.817L124.973 197.362C104.792 283.785 86.808 358.731 71.0218 422.202L72.9626 422.685ZM126.055 196.596L67.2166 190.248L67.0021 192.236L125.84 198.584L126.055 196.596ZM68.0487 190.899C64.3523 180.774 62.4941 169.256 62.4941 156.33H60.4941C60.4941 169.446 62.3795 181.202 66.17 191.585L68.0487 190.899ZM62.4941 156.33C62.4941 146.479 63.6245 136.874 65.8842 127.512L63.94 127.043C61.6424 136.561 60.4941 146.324 60.4941 156.33H62.4941ZM65.1017 128.259C88.6506 123.712 115.788 120.461 146.518 118.51L146.392 116.514C115.599 118.469 88.3742 121.728 64.7225 126.295L65.1017 128.259ZM146.523 118.509C177.433 116.394 203.939 115.338 226.045 115.338V113.338C203.88 113.338 177.326 114.397 146.387 116.514L146.523 118.509ZM226.045 115.338C241.994 115.338 253.949 115.419 261.913 115.582L261.954 113.582C253.968 113.419 241.997 113.338 226.045 113.338V115.338ZM261.437 115.45L276.818 124.239L277.811 122.503L262.43 113.714L261.437 115.45ZM276.375 123.713C303.697 198.687 331.437 300.119 359.59 428.029L361.543 427.599C333.381 299.65 305.619 198.121 278.254 123.029L276.375 123.713ZM359.596 428.057C359.916 429.337 360.482 431.922 361.296 435.831L363.254 435.423C362.441 431.52 361.868 428.896 361.537 427.572L359.596 428.057ZM361.305 435.869C362.274 439.744 362.999 443.452 363.482 446.993L365.463 446.722C364.97 443.102 364.23 439.322 363.246 435.384L361.305 435.869ZM363.483 446.999C363.965 450.375 364.205 453.583 364.205 456.623H366.205C366.205 453.478 365.957 450.175 365.463 446.716L363.483 446.999ZM364.205 456.623C364.205 470.024 359.434 480.809 349.902 489.07L351.212 490.582C361.21 481.916 366.205 470.566 366.205 456.623H364.205ZM350.191 488.895C336.666 494.209 320.277 496.883 300.996 496.883V498.883C320.452 498.883 337.103 496.186 350.922 490.757L350.191 488.895ZM300.996 496.883C291.953 496.883 282.827 495.914 273.614 493.975L273.202 495.932C282.545 497.898 291.81 498.883 300.996 498.883V496.883ZM273.614 493.975C264.399 492.035 258.422 489.085 255.39 485.295L253.829 486.545C257.307 490.893 263.862 493.965 273.202 495.932L273.614 493.975ZM255.608 485.966L258.538 422.978L256.54 422.885L253.61 485.873L255.608 485.966ZM258.522 422.748L252.419 390.033L250.453 390.4L256.556 423.115L258.522 422.748ZM251.374 389.219C240.821 389.868 228.391 390.193 214.082 390.193V392.193C228.419 392.193 240.891 391.868 251.497 391.215L251.374 389.219ZM214.082 390.193C198.804 390.193 184.505 389.706 171.186 388.731L171.04 390.726C184.414 391.704 198.762 392.193 214.082 392.193V390.193ZM170.137 389.512L167.207 402.695L169.16 403.129L172.089 389.945L170.137 389.512ZM167.208 402.693C160.861 431.012 155.662 451.066 151.613 462.891L153.505 463.539C157.593 451.601 162.811 431.453 169.159 403.131L167.208 402.693ZM151.609 462.903C147.749 474.643 141.991 483.233 134.391 488.774L135.57 490.39C143.595 484.538 149.556 475.549 153.509 463.527L151.609 462.903ZM134.383 488.78C126.982 494.291 115.761 497.127 100.557 497.127V499.127C115.951 499.127 127.679 496.266 135.578 490.384L134.383 488.78ZM100.557 497.127C90.7166 497.127 80.7908 495.837 70.7772 493.252L70.2775 495.189C80.4462 497.813 90.5399 499.127 100.557 499.127V497.127ZM70.7625 493.249C60.7398 490.824 51.7026 487.514 43.6449 483.324L42.7222 485.098C50.9407 489.372 60.1326 492.735 70.2922 495.193L70.7625 493.249ZM43.6449 483.324C35.5767 479.128 29.5966 474.645 25.6413 469.899L24.1048 471.179C28.2876 476.199 34.5145 480.83 42.7222 485.098L43.6449 483.324ZM25.873 470.539C25.873 458.924 27.6473 447.884 31.1914 437.412L29.2969 436.771C25.6795 447.459 23.873 458.717 23.873 470.539H25.873ZM31.1914 437.412C34.735 426.943 39.5224 419.673 45.4718 415.446L44.3134 413.816C37.893 418.378 32.9148 426.082 29.2969 436.771L31.1914 437.412ZM216.035 198.787H204.805V200.787H216.035V198.787ZM203.815 199.643L186.237 320.004L188.216 320.293L205.794 199.932L203.815 199.643ZM187.227 321.148H241.914V319.148H187.227V321.148ZM242.892 319.938L217.013 199.577L215.057 199.997L240.936 320.359L242.892 319.938Z" fill="#B6AB84" mask="url(#path-1-outside-1_2_6)"/>
<mask id="path-3-outside-2_2_6" maskUnits="userSpaceOnUse" x="-1" y="113" width="344" height="387" fill="black">
<rect fill="white" x="-1" y="113" width="344" height="387"/>
<path d="M20.8926 414.631C30.821 417.886 39.8542 420.49 47.9922 422.443C63.7799 358.967 81.765 284.016 101.947 197.59L43.1094 191.242C39.3659 180.988 37.4941 169.351 37.4941 156.33C37.4941 146.402 38.6335 136.717 40.9121 127.277C64.5124 122.72 91.6934 119.465 122.455 117.512C153.38 115.396 179.91 114.338 202.045 114.338C217.995 114.338 229.958 114.419 237.934 114.582L253.314 123.371C280.658 198.404 308.409 299.885 336.566 427.814C336.892 429.117 337.462 431.721 338.275 435.627C339.252 439.533 339.984 443.277 340.473 446.857C340.961 450.275 341.205 453.531 341.205 456.623C341.205 470.295 336.322 481.363 326.557 489.826C312.885 495.197 296.365 497.883 276.996 497.883C267.882 497.883 258.686 496.906 249.408 494.953C240.131 493 233.865 489.989 230.609 485.92L233.539 422.932L227.436 390.217C216.856 390.868 204.405 391.193 190.082 391.193C174.783 391.193 160.46 390.705 147.113 389.729L144.184 402.912C137.836 431.232 132.628 451.333 128.559 463.215C124.652 475.096 118.793 483.885 110.98 489.582C103.331 495.279 91.8561 498.127 76.5566 498.127C66.6283 498.127 56.6185 496.825 46.5273 494.221C36.4362 491.779 27.3216 488.443 19.1836 484.211C11.0456 479.979 4.94206 475.422 0.873047 470.539C0.873047 458.82 2.66341 447.671 6.24414 437.092C9.82487 426.512 14.7077 419.025 20.8926 414.631ZM192.035 199.787H180.805L163.227 320.148H217.914L192.035 199.787Z"/>
</mask>
<path d="M20.8926 414.631C30.821 417.886 39.8542 420.49 47.9922 422.443C63.7799 358.967 81.765 284.016 101.947 197.59L43.1094 191.242C39.3659 180.988 37.4941 169.351 37.4941 156.33C37.4941 146.402 38.6335 136.717 40.9121 127.277C64.5124 122.72 91.6934 119.465 122.455 117.512C153.38 115.396 179.91 114.338 202.045 114.338C217.995 114.338 229.958 114.419 237.934 114.582L253.314 123.371C280.658 198.404 308.409 299.885 336.566 427.814C336.892 429.117 337.462 431.721 338.275 435.627C339.252 439.533 339.984 443.277 340.473 446.857C340.961 450.275 341.205 453.531 341.205 456.623C341.205 470.295 336.322 481.363 326.557 489.826C312.885 495.197 296.365 497.883 276.996 497.883C267.882 497.883 258.686 496.906 249.408 494.953C240.131 493 233.865 489.989 230.609 485.92L233.539 422.932L227.436 390.217C216.856 390.868 204.405 391.193 190.082 391.193C174.783 391.193 160.46 390.705 147.113 389.729L144.184 402.912C137.836 431.232 132.628 451.333 128.559 463.215C124.652 475.096 118.793 483.885 110.98 489.582C103.331 495.279 91.8561 498.127 76.5566 498.127C66.6283 498.127 56.6185 496.825 46.5273 494.221C36.4362 491.779 27.3216 488.443 19.1836 484.211C11.0456 479.979 4.94206 475.422 0.873047 470.539C0.873047 458.82 2.66341 447.671 6.24414 437.092C9.82487 426.512 14.7077 419.025 20.8926 414.631ZM192.035 199.787H180.805L163.227 320.148H217.914L192.035 199.787Z" fill="#17182F"/>
<path d="M20.8926 414.631L21.2041 413.681L20.7247 413.523L20.3134 413.816L20.8926 414.631ZM47.9922 422.443L47.7588 423.416L48.7232 423.647L48.9626 422.685L47.9922 422.443ZM101.947 197.59L102.921 197.817L103.178 196.717L102.055 196.596L101.947 197.59ZM43.1094 191.242L42.17 191.585L42.3834 192.17L43.0021 192.236L43.1094 191.242ZM40.9121 127.277L40.7225 126.295L40.091 126.417L39.94 127.043L40.9121 127.277ZM122.455 117.512L122.518 118.51L122.523 118.509L122.455 117.512ZM237.934 114.582L238.43 113.714L238.209 113.587L237.954 113.582L237.934 114.582ZM253.314 123.371L254.254 123.029L254.129 122.685L253.811 122.503L253.314 123.371ZM336.566 427.814L335.59 428.029L335.593 428.043L335.596 428.057L336.566 427.814ZM338.275 435.627L337.296 435.831L337.3 435.85L337.305 435.869L338.275 435.627ZM340.473 446.857L339.482 446.993L339.483 446.999L340.473 446.857ZM326.557 489.826L326.922 490.757L327.082 490.694L327.212 490.582L326.557 489.826ZM230.609 485.92L229.61 485.873L229.593 486.25L229.829 486.545L230.609 485.92ZM233.539 422.932L234.538 422.978L234.543 422.862L234.522 422.748L233.539 422.932ZM227.436 390.217L228.419 390.033L228.256 389.164L227.374 389.219L227.436 390.217ZM147.113 389.729L147.186 388.731L146.325 388.668L146.137 389.512L147.113 389.729ZM144.184 402.912L145.159 403.131L145.16 403.129L144.184 402.912ZM128.559 463.215L127.612 462.891L127.609 462.903L128.559 463.215ZM110.98 489.582L110.391 488.774L110.383 488.78L110.98 489.582ZM46.5273 494.221L46.7772 493.252L46.7699 493.251L46.7625 493.249L46.5273 494.221ZM0.873047 470.539H-0.126953V470.901L0.104826 471.179L0.873047 470.539ZM6.24414 437.092L5.29692 436.771L6.24414 437.092ZM192.035 199.787L193.013 199.577L192.843 198.787H192.035V199.787ZM180.805 199.787V198.787H179.94L179.815 199.643L180.805 199.787ZM163.227 320.148L162.237 320.004L162.07 321.148H163.227V320.148ZM217.914 320.148V321.148H219.152L218.892 319.938L217.914 320.148ZM20.581 415.581C30.5291 418.843 39.5889 421.455 47.7588 423.416L48.2256 421.471C40.1194 419.525 31.1128 416.929 21.2041 413.681L20.581 415.581ZM48.9626 422.685C64.7519 359.202 82.738 284.246 102.921 197.817L100.973 197.362C80.7919 283.785 62.808 358.731 47.0218 422.202L48.9626 422.685ZM102.055 196.596L43.2166 190.248L43.0021 192.236L101.84 198.584L102.055 196.596ZM44.0487 190.899C40.3523 180.774 38.4941 169.256 38.4941 156.33H36.4941C36.4941 169.446 38.3795 181.202 42.17 191.585L44.0487 190.899ZM38.4941 156.33C38.4941 146.479 39.6245 136.874 41.8842 127.512L39.94 127.043C37.6424 136.561 36.4941 146.324 36.4941 156.33H38.4941ZM41.1017 128.259C64.6506 123.712 91.7879 120.461 122.518 118.51L122.392 116.514C91.5988 118.469 64.3742 121.728 40.7225 126.295L41.1017 128.259ZM122.523 118.509C153.433 116.394 179.939 115.338 202.045 115.338V113.338C179.88 113.338 153.326 114.397 122.387 116.514L122.523 118.509ZM202.045 115.338C217.994 115.338 229.949 115.419 237.913 115.582L237.954 113.582C229.968 113.419 217.997 113.338 202.045 113.338V115.338ZM237.437 115.45L252.818 124.239L253.811 122.503L238.43 113.714L237.437 115.45ZM252.375 123.713C279.697 198.687 307.437 300.119 335.59 428.029L337.543 427.599C309.381 299.65 281.619 198.121 254.254 123.029L252.375 123.713ZM335.596 428.057C335.916 429.337 336.482 431.922 337.296 435.831L339.254 435.423C338.441 431.52 337.868 428.896 337.537 427.572L335.596 428.057ZM337.305 435.869C338.274 439.744 338.999 443.452 339.482 446.993L341.463 446.722C340.97 443.102 340.23 439.322 339.246 435.384L337.305 435.869ZM339.483 446.999C339.965 450.375 340.205 453.583 340.205 456.623H342.205C342.205 453.478 341.957 450.175 341.463 446.716L339.483 446.999ZM340.205 456.623C340.205 470.024 335.434 480.809 325.902 489.07L327.212 490.582C337.21 481.916 342.205 470.566 342.205 456.623H340.205ZM326.191 488.895C312.666 494.209 296.277 496.883 276.996 496.883V498.883C296.452 498.883 313.103 496.186 326.922 490.757L326.191 488.895ZM276.996 496.883C267.953 496.883 258.827 495.914 249.614 493.975L249.202 495.932C258.545 497.898 267.81 498.883 276.996 498.883V496.883ZM249.614 493.975C240.399 492.035 234.422 489.085 231.39 485.295L229.829 486.545C233.307 490.893 239.862 493.965 249.202 495.932L249.614 493.975ZM231.608 485.966L234.538 422.978L232.54 422.885L229.61 485.873L231.608 485.966ZM234.522 422.748L228.419 390.033L226.453 390.4L232.556 423.115L234.522 422.748ZM227.374 389.219C216.821 389.868 204.391 390.193 190.082 390.193V392.193C204.419 392.193 216.891 391.868 227.497 391.215L227.374 389.219ZM190.082 390.193C174.804 390.193 160.505 389.706 147.186 388.731L147.04 390.726C160.414 391.704 174.762 392.193 190.082 392.193V390.193ZM146.137 389.512L143.207 402.695L145.16 403.129L148.089 389.945L146.137 389.512ZM143.208 402.693C136.861 431.012 131.662 451.066 127.613 462.891L129.505 463.539C133.593 451.601 138.811 431.453 145.159 403.131L143.208 402.693ZM127.609 462.903C123.749 474.643 117.991 483.233 110.391 488.774L111.57 490.39C119.595 484.538 125.556 475.549 129.509 463.527L127.609 462.903ZM110.383 488.78C102.982 494.291 91.7611 497.127 76.5566 497.127V499.127C91.9512 499.127 103.679 496.266 111.578 490.384L110.383 488.78ZM76.5566 497.127C66.7166 497.127 56.7908 495.837 46.7772 493.252L46.2775 495.189C56.4462 497.813 66.5399 499.127 76.5566 499.127V497.127ZM46.7625 493.249C36.7398 490.824 27.7026 487.514 19.6449 483.324L18.7222 485.098C26.9407 489.372 36.1326 492.735 46.2922 495.193L46.7625 493.249ZM19.6449 483.324C11.5767 479.128 5.59655 474.645 1.64127 469.899L0.104826 471.179C4.28756 476.199 10.5145 480.83 18.7222 485.098L19.6449 483.324ZM1.87305 470.539C1.87305 458.924 3.64727 447.884 7.19136 437.412L5.29692 436.771C1.67955 447.459 -0.126953 458.717 -0.126953 470.539H1.87305ZM7.19136 437.412C10.735 426.943 15.5224 419.673 21.4718 415.446L20.3134 413.816C13.893 418.378 8.91478 426.082 5.29692 436.771L7.19136 437.412ZM192.035 198.787H180.805V200.787H192.035V198.787ZM179.815 199.643L162.237 320.004L164.216 320.293L181.794 199.932L179.815 199.643ZM163.227 321.148H217.914V319.148H163.227V321.148ZM218.892 319.938L193.013 199.577L191.057 199.997L216.936 320.359L218.892 319.938Z" fill="#B6AB84" mask="url(#path-3-outside-2_2_6)"/>
</svg>
